<svg width="128" height="56" viewBox="0 0 128 56" fill="none" xmlns="http://www.w3.org/2000/svg">
<path fill-rule="evenodd" clip-rule="evenodd" d="M32.1799 9.92027C32.0647 3.36154 26.2712 -1.36704 20.3858 0.357591L5.18019 4.81269L5.0887 4.84028C2.138 5.75076 0.0793824 8.62934 0 11.9397V25.2212L4.80796 25.0954L4.84765 25.0944C6.1623 25.0721 7.39951 25.6119 8.33225 26.6187C9.27419 27.6356 9.77662 28.989 9.74661 30.4285L9.57526 38.6301L9.57478 38.6635C9.55832 39.7652 8.71851 40.6795 7.68848 40.7003C7.67686 40.7013 7.66476 40.7013 7.65314 40.7013C7.15749 40.7013 6.687 40.4907 6.32494 40.1059C5.94642 39.7032 5.72909 39.147 5.72909 38.5764V30.8995V30.8738C5.7165 30.036 5.0829 29.3511 4.30601 29.3414L0 29.2872V44.06C0.0803505 47.4038 2.1806 50.3085 5.18019 51.1865L20.3863 55.6426L20.5644 55.693C26.4474 57.2869 32.1818 52.4755 32.1818 45.88V10.1197L32.1799 9.92027ZM7.61491 19.2966C6.03355 19.2966 4.75181 18.0149 4.75181 16.4335C4.75181 14.8521 6.03355 13.5704 7.61491 13.5704C9.19626 13.5704 10.478 14.8521 10.478 16.4335C10.478 18.0144 9.19626 19.2966 7.61491 19.2966ZM23.6957 43.1742L23.7073 43.1868C23.9401 43.4492 24.0079 43.833 23.8786 44.1694C23.7474 44.5126 23.4411 44.7333 23.0984 44.7333H20.5828H20.5596C20.0934 44.727 19.6559 44.5276 19.3257 44.1709L12.131 36.3885L12.1039 36.3604C11.2142 35.4369 10.7249 34.1944 10.7249 32.8589C10.7249 31.5089 11.2244 30.2557 12.131 29.3288L19.3267 21.5454L19.3432 21.528C19.6767 21.1761 20.1162 20.9825 20.5833 20.9825H23.1061C23.4478 20.9825 23.7528 21.2032 23.8839 21.5445C24.0146 21.8857 23.943 22.2754 23.7015 22.5368L14.1586 32.8589L23.6957 43.1742Z" fill="#0F69F1"/>
<path d="M57.9575 19.8604H54.0547V43.951H57.9575V19.8604Z" fill="#0F69F1"/>
<path d="M72.4416 19.1172C69.5688 19.1172 66.9541 20.5146 65.5581 22.6986V19.852H61.8242V43.9542H65.5581V30.0913C65.5581 26.2364 68.4822 23.0999 72.0762 23.0999C75.6256 23.0999 78.6247 26.3013 78.6247 30.0913V43.9542H82.3286V31.0371C82.3281 23.7959 78.4476 19.1172 72.4416 19.1172Z" fill="#0F69F1"/>
<path d="M47.5213 12.1406H43.6234V19.8843H39.3711V23.4487H43.6234V43.9541H47.5213V23.4487H52.0791V19.8843H47.5213V12.1406Z" fill="#0F69F1"/>
<path d="M103.407 19.8604H99.5039V43.951H103.407V19.8604Z" fill="#0F69F1"/>
<path d="M117.684 19.1172C114.812 19.1172 112.197 20.5146 110.801 22.6986V19.852H107.066V43.9542H110.801V30.0913C110.801 26.2364 113.725 23.0999 117.318 23.0999C120.868 23.0999 123.867 26.3013 123.867 30.0913V43.9542H127.57V31.0371C127.571 23.7959 123.69 19.1172 117.684 19.1172Z" fill="#0F69F1"/>
<path d="M92.2954 19.854L84.4336 28.316V35.3466L92.4057 43.9538H97.7161L86.4758 31.8311L97.6058 19.854H92.2954Z" fill="#0F69F1"/>
<path d="M56.0069 17.2696C57.4497 17.2696 58.6193 16.1 58.6193 14.6573C58.6193 13.2145 57.4497 12.0449 56.0069 12.0449C54.5641 12.0449 53.3945 13.2145 53.3945 14.6573C53.3945 16.1 54.5641 17.2696 56.0069 17.2696Z" fill="#0F69F1"/>
<path d="M101.249 17.2696C102.692 17.2696 103.861 16.1 103.861 14.6573C103.861 13.2145 102.692 12.0449 101.249 12.0449C99.8063 12.0449 98.6367 13.2145 98.6367 14.6573C98.6367 16.1 99.8063 17.2696 101.249 17.2696Z" fill="#0F69F1"/>
</svg>
